<svg width="46" height="40" viewBox="0 0 46 40" fill="none" xmlns="http://www.w3.org/2000/svg">
<path d="M28.4538 37.9167H17.0723C6.77201 37.9167 2.37115 34.05 2.37115 25V15C2.37115 5.95001 6.77201 2.08334 17.0723 2.08334H28.4538C38.7541 2.08334 43.155 5.95001 43.155 15V25C43.155 34.05 38.7541 37.9167 28.4538 37.9167ZM17.0723 4.58334C8.32749 4.58334 5.21654 7.31668 5.21654 15V25C5.21654 32.6833 8.32749 35.4167 17.0723 35.4167H28.4538C37.1986 35.4167 40.3096 32.6833 40.3096 25V15C40.3096 7.31668 37.1986 4.58334 28.4538 4.58334H17.0723Z" fill="white"/>
<path d="M22.7631 24.85C22.4027 24.85 22.0423 24.7333 21.7578 24.4833L15.0616 18.6C14.5115 18.1167 14.5115 17.3167 15.0616 16.8333C15.6117 16.35 16.5223 16.35 17.0724 16.8333L22.7631 21.8333L28.4539 16.8333C29.004 16.35 29.9145 16.35 30.4646 16.8333C31.0147 17.3167 31.0147 18.1167 30.4646 18.6L23.7685 24.4833C23.484 24.7333 23.1235 24.85 22.7631 24.85Z" fill="white"/>
</svg>
